<?xml version="1.0" encoding="UTF-8"?>
<svg id="Capa_1" data-name="Capa 1" xmlns="http://www.w3.org/2000/svg" viewBox="0 0 160 80">
  <defs>
    <style>
      .cls-1 {
        fill: #010101;
      }

      .cls-1, .cls-2, .cls-3 {
        stroke-width: 0px;
      }

      .cls-2 {
        fill: #473d8c;
      }

      .cls-3 {
        fill: #1d1d1b;
      }
    </style>
  </defs>
  <g id="Capa_2" data-name="Capa 2">
    <path class="cls-1" d="m44.03,44.58c1.8-.4,3.4-.8,4.9-1.3,1.9,1.2,4.4,2,7.1,2,6,0,10.8-3.6,10.8-8.1,0-2.8-1.9-5.3-4.8-6.8.1-.6.2-1.3.2-2,0-3.8-1.2-6.9-3.7-9.4s-5.9-4.4-10.4-5.7c-2.4-.7-5.2-1.1-8.5-1.5-3.3-.3-6.9-.5-10.8-.5h-5.7c-1.2,2.2-1.8,4.8-1.8,8,0,2.9.9,5.1,2.6,6.8,1.8,1.7,4.1,2.5,7.2,2.5,1.3,0,2.7-.2,4-.6,1.4-.4,2.8-.9,4.2-1.7l-.9,8.6c-1.7.4-3.3.8-4.9,1s-3.1.3-4.6.3c-5.4,0-9.6-1.5-12.6-4.5s-4.5-7.2-4.5-12.5c0-2.7.5-5.3,1.4-7.8h-7.8v56.7h14v-22h9.6l20.9,22h16.9l-22.8-23.3v-.2Zm7.4-24.7c2.5,0,4.5,2,4.5,4.5s-2,4.5-4.5,4.5-4.5-2-4.5-4.5,2-4.5,4.5-4.5Z"/>
  </g>
  <g>
    <path class="cls-2" d="m70.05,19.28h5.38c1.87,0,3.23.43,4.09,1.3.86.87,1.29,2.21,1.29,4.01v1.42c0,2.4-.79,3.92-2.38,4.55v.07c.88.26,1.5.8,1.86,1.62s.54,1.9.54,3.27v4.06c0,.66.02,1.19.07,1.6.04.41.15.81.33,1.21h-3.7c-.13-.37-.22-.73-.26-1.06s-.07-.92-.07-1.78v-4.22c0-1.06-.17-1.79-.51-2.21-.34-.42-.93-.63-1.77-.63h-1.25v9.9h-3.63v-23.1Zm4.95,9.9c.73,0,1.27-.19,1.63-.56.36-.37.54-1,.54-1.88v-1.78c0-.84-.15-1.44-.45-1.81s-.76-.56-1.4-.56h-1.65v6.6h1.32Z"/>
    <path class="cls-2" d="m84.5,41.2c-.95-1.01-1.42-2.44-1.42-4.29v-12.14c0-1.85.47-3.28,1.42-4.29.95-1.01,2.31-1.52,4.09-1.52s3.15.51,4.09,1.52c.95,1.01,1.42,2.44,1.42,4.29v12.14c0,1.85-.47,3.28-1.42,4.29-.95,1.01-2.31,1.52-4.09,1.52s-3.15-.51-4.09-1.52Zm5.97-4.06v-12.61c0-1.52-.63-2.28-1.88-2.28s-1.88.76-1.88,2.28v12.61c0,1.52.63,2.28,1.88,2.28s1.88-.76,1.88-2.28Z"/>
    <path class="cls-2" d="m97.68,41.23c-.91-.99-1.37-2.39-1.37-4.19v-12.41c0-1.8.46-3.2,1.37-4.19.91-.99,2.24-1.49,3.98-1.49s3.06.5,3.98,1.49c.91.99,1.37,2.39,1.37,4.19v2.44h-3.43v-2.67c0-1.43-.61-2.15-1.81-2.15s-1.82.71-1.82,2.15v12.9c0,1.41.6,2.11,1.82,2.11s1.81-.7,1.81-2.11v-3.53h3.43v3.27c0,1.8-.46,3.2-1.37,4.19s-2.24,1.49-3.98,1.49-3.06-.5-3.98-1.49Z"/>
    <path class="cls-2" d="m110.39,41.23c-.91-.99-1.37-2.39-1.37-4.19v-12.41c0-1.8.46-3.2,1.37-4.19.91-.99,2.24-1.49,3.98-1.49s3.06.5,3.98,1.49c.91.99,1.37,2.39,1.37,4.19v2.44h-3.43v-2.67c0-1.43-.61-2.15-1.81-2.15s-1.82.71-1.82,2.15v12.9c0,1.41.6,2.11,1.82,2.11s1.81-.7,1.81-2.11v-3.53h3.43v3.27c0,1.8-.46,3.2-1.37,4.19s-2.24,1.49-3.98,1.49-3.06-.5-3.98-1.49Z"/>
    <path class="cls-2" d="m123.11,41.2c-.95-1.01-1.42-2.44-1.42-4.29v-12.14c0-1.85.47-3.28,1.42-4.29.95-1.01,2.31-1.52,4.09-1.52s3.15.51,4.09,1.52c.95,1.01,1.42,2.44,1.42,4.29v12.14c0,1.85-.47,3.28-1.42,4.29-.95,1.01-2.31,1.52-4.09,1.52s-3.15-.51-4.09-1.52Zm5.97-4.06v-12.61c0-1.52-.63-2.28-1.88-2.28s-1.88.76-1.88,2.28v12.61c0,1.52.63,2.28,1.88,2.28s1.88-.76,1.88-2.28Z"/>
    <path class="cls-3" d="m71.19,67.23c-.91-.99-1.37-2.39-1.37-4.19v-12.41c0-1.8.46-3.2,1.37-4.19.91-.99,2.24-1.48,3.98-1.48s3.06.5,3.98,1.48c.91.99,1.37,2.39,1.37,4.19v2.44h-3.43v-2.67c0-1.43-.61-2.14-1.81-2.14s-1.82.71-1.82,2.14v12.9c0,1.41.6,2.11,1.82,2.11s1.81-.7,1.81-2.11v-3.53h3.43v3.27c0,1.8-.46,3.2-1.37,4.19-.91.99-2.24,1.49-3.98,1.49s-3.06-.5-3.98-1.49Z"/>
    <path class="cls-3" d="m82.69,45.28h3.63v19.8h5.97v3.3h-9.6v-23.1Z"/>
    <path class="cls-3" d="m95.06,67.2c-.95-1.01-1.42-2.44-1.42-4.29v-12.14c0-1.85.47-3.28,1.42-4.29.95-1.01,2.31-1.52,4.09-1.52s3.15.51,4.09,1.52c.95,1.01,1.42,2.44,1.42,4.29v12.14c0,1.85-.47,3.28-1.42,4.29-.95,1.01-2.31,1.52-4.09,1.52s-3.15-.51-4.09-1.52Zm5.97-4.06v-12.61c0-1.52-.63-2.28-1.88-2.28s-1.88.76-1.88,2.28v12.61c0,1.52.63,2.28,1.88,2.28s1.88-.76,1.88-2.28Z"/>
    <path class="cls-3" d="m109.81,48.58h-3.79v-3.3h11.22v3.3h-3.79v19.8h-3.63v-19.8Z"/>
    <path class="cls-3" d="m118.99,45.28h3.63v9.4h3.89v-9.4h3.63v23.1h-3.63v-10.39h-3.89v10.39h-3.63v-23.1Z"/>
    <path class="cls-3" d="m132.85,45.28h9.9v3.3h-6.27v6.1h4.98v3.3h-4.98v7.09h6.27v3.3h-9.9v-23.1Z"/>
    <path class="cls-3" d="m145.62,67.21c-.9-1-1.35-2.44-1.35-4.31v-1.32h3.43v1.58c0,1.5.63,2.24,1.88,2.24.62,0,1.08-.18,1.4-.54.32-.36.48-.95.48-1.77,0-.97-.22-1.82-.66-2.56-.44-.74-1.25-1.62-2.44-2.66-1.5-1.32-2.54-2.51-3.14-3.58-.59-1.07-.89-2.27-.89-3.61,0-1.83.46-3.24,1.39-4.24.92-1,2.27-1.5,4.03-1.5s3.05.5,3.94,1.5c.89,1,1.34,2.44,1.34,4.31v.96h-3.43v-1.19c0-.79-.15-1.37-.46-1.73-.31-.36-.76-.54-1.35-.54-1.21,0-1.82.74-1.82,2.21,0,.84.23,1.62.68,2.34.45.73,1.27,1.61,2.46,2.64,1.52,1.32,2.56,2.52,3.14,3.6.57,1.08.86,2.34.86,3.79,0,1.89-.47,3.34-1.4,4.36-.94,1.01-2.29,1.52-4.08,1.52s-3.09-.5-3.99-1.5Z"/>
  </g>
  <path class="cls-3" d="m136.48,26.57c-.53-.31-.94-.74-1.24-1.29-.3-.55-.45-1.16-.45-1.84s.15-1.29.45-1.84c.3-.55.71-.98,1.24-1.29.53-.31,1.12-.47,1.79-.47s1.25.16,1.79.47.95.74,1.25,1.29c.3.55.45,1.16.45,1.84s-.15,1.29-.45,1.84c-.3.55-.71.98-1.25,1.29-.53.31-1.12.47-1.79.47s-1.25-.16-1.79-.47Zm3.21-.6c.42-.25.75-.59.99-1.03s.36-.94.36-1.5-.12-1.05-.36-1.5-.57-.79-.99-1.03-.89-.37-1.42-.37-1,.12-1.42.37-.75.59-.98,1.03c-.24.44-.36.94-.36,1.5s.12,1.05.36,1.5c.24.44.56.79.98,1.03.42.25.89.37,1.42.37s1-.12,1.42-.37Zm-2.52-4.67h1.16c.39,0,.67.09.85.27.18.18.28.47.28.85v.09c0,.47-.17.78-.52.93v.02c.19.08.32.2.4.37s.12.38.12.65v.51c0,.26.03.46.09.59h-.78c-.03-.07-.04-.15-.05-.22,0-.07-.01-.2-.01-.38v-.51c0-.23-.04-.39-.12-.48-.08-.09-.21-.14-.39-.14h-.26v1.73h-.76v-4.28Zm1.07,1.85c.15,0,.26-.04.34-.11s.12-.21.12-.4v-.13c0-.17-.03-.3-.1-.38s-.17-.12-.31-.12h-.36v1.15h.31Z"/>
</svg>