<?xml version="1.0" encoding="utf-8"?>
<!-- Generator: Adobe Illustrator 28.0.0, SVG Export Plug-In . SVG Version: 6.00 Build 0)  -->
<svg version="1.1" id="Capa_1" xmlns="http://www.w3.org/2000/svg" xmlns:xlink="http://www.w3.org/1999/xlink" x="0px" y="0px"
	 viewBox="0 0 64 64" style="enable-background:new 0 0 64 64;" xml:space="preserve">
<style type="text/css">
	.st0{fill:#FFFFFF;stroke:#000000;stroke-width:2.7597;stroke-miterlimit:10;}
	.st1{fill:none;}
</style>
<g id="Capa_1_1_">
	<path class="st0" d="M23.5,6.2"/>
</g>
<g id="Capa_2_1_">
	<g>
		<path d="M40.6,36.4c1.8-0.4,3.4-0.8,4.9-1.3c1.9,1.2,4.4,2,7.1,2c6,0,10.8-3.6,10.8-8.1c0-2.8-1.9-5.3-4.8-6.8
			c0.1-0.6,0.2-1.3,0.2-2c0-3.8-1.2-6.9-3.7-9.4c-2.5-2.5-5.9-4.4-10.4-5.7c-2.4-0.7-5.2-1.1-8.5-1.5c-3.3-0.3-6.9-0.5-10.8-0.5
			h-5.7c-1.2,2.2-1.8,4.8-1.8,8c0,2.9,0.9,5.1,2.6,6.8c1.8,1.7,4.1,2.5,7.2,2.5c1.3,0,2.7-0.2,4-0.6c1.4-0.4,2.8-0.9,4.2-1.7
			L35,26.7c-1.7,0.4-3.3,0.8-4.9,1c-1.6,0.2-3.1,0.3-4.6,0.3c-5.4,0-9.6-1.5-12.6-4.5c-3-3-4.5-7.2-4.5-12.5c0-2.7,0.5-5.3,1.4-7.8
			H2v56.7h14v-22h9.6l20.9,22h16.9L40.6,36.6C40.6,36.6,40.6,36.4,40.6,36.4z M48,11.7c2.5,0,4.5,2,4.5,4.5s-2,4.5-4.5,4.5
			s-4.5-2-4.5-4.5C43.5,13.8,45.5,11.7,48,11.7z"/>
	</g>
	<rect x="55.8" y="3.7" class="st1" width="18.4" height="11.4"/>
</g>
<g>
	<path d="M60.5,5.5c0,1.1-0.9,2-2,2c-1.1,0-2-0.9-2-2c0-1.1,0.9-2,2-2C59.6,3.5,60.5,4.4,60.5,5.5z M56.9,5.5c0,0.9,0.6,1.6,1.5,1.6
		C59.3,7,60,6.3,60,5.5c0-0.9-0.6-1.6-1.5-1.6C57.6,3.9,56.9,4.6,56.9,5.5z M58.1,6.5h-0.5v-2c0.2,0,0.4-0.1,0.8-0.1
		c0.4,0,0.5,0.1,0.7,0.1c0.1,0.1,0.2,0.2,0.2,0.4c0,0.2-0.2,0.4-0.4,0.5v0c0.2,0.1,0.3,0.2,0.4,0.5c0.1,0.3,0.1,0.4,0.1,0.5h-0.5
		c-0.1-0.1-0.1-0.3-0.2-0.5c0-0.2-0.2-0.3-0.4-0.3h-0.2V6.5z M58.2,5.4h0.2c0.3,0,0.5-0.1,0.5-0.3c0-0.2-0.1-0.3-0.4-0.3
		c-0.1,0-0.2,0-0.3,0V5.4z"/>
</g>
</svg>
